<?xml version="1.0" encoding="UTF-8"?>
<svg id="Layer_1" xmlns="http://www.w3.org/2000/svg" version="1.1" viewBox="0 0 100 100">
  <!-- Generator: Adobe Illustrator 30.1.0, SVG Export Plug-In . SVG Version: 2.1.1 Build 136)  -->
  <defs>
    <style>
      .st0 {
        fill: #38bdf8;
      }
    </style>
  </defs>
  <g>
    <path d="M-1723,25.97v512H-699V-486.03h-1024V25.97ZM-1168.4-304.13c61.7,8.2,115.6,31.4,165.4,71,12.2,9.7,41.4,38.9,51.1,51.1,33.3,41.9,55.8,89.2,66.2,139.6,12.1,57.7,9.2,114.6-8.4,169.1-25.5,78.8-78.5,144.4-151.3,187.2-76.8,45.2-169.9,56.8-256.1,32-87.9-25.4-162.7-86.5-204.6-167.4-30.2-58.2-42.4-121.2-35.8-186,7.8-77.3,43.1-149.9,99.6-204.6,55.2-53.4,124.4-85.9,197.8-92.9,6.1-.5,12.6-1.2,14.5-1.4,8.8-1,47.3.4,61.6,2.3Z"/>
    <path d="M-1230-286.03c-32.3,2.1-65.9,9.6-95.2,21.4-72.6,29.1-131.4,83.4-165.8,153.1-13,26.5-20.5,48.1-26,75.5-3.1,15.3-6,37.8-6,46.8v5.3l28.3-.3c28.1-.3,28.2-.3,33.8-2.9,3.2-1.5,7.5-4.5,9.6-6.6,7.1-7.1,8.9-12.6,12.4-38.8,1-7.6,1.6-9.3,4-11.7,3.9-4,9.9-3.9,14,.1,1.9,1.9,2.9,4,2.9,5.8,0,6.1-4,31.1-5.8,36.3-6.6,18.9-18.9,31-37.1,36.4-4.5,1.3-10.7,1.6-33.9,1.6h-28.5l.7,11.2c2.6,42,15.1,85.7,35.3,123.8,15.4,28.9,31.5,50.4,56.7,75.5,27.4,27.2,48.9,42.6,83.1,59.5,35,17.2,67,26.5,105.5,30.6,20.7,2.2,56.5,1.5,76-1.5,28.5-4.4,57.7-13,83.4-24.8,70.4-32.2,126.7-89.2,158.1-160.1,8.6-19.6,16.3-44.6,20.5-66.7,2.2-12.3,5-35.5,5-42.8v-4.7h-26.3c-29.3,0-32.9.5-41.4,6.3-5,3.5-10.5,11.3-12.3,17.7-.6,1.9-1.9,10.1-3,18.2-1,8.1-2.5,15.6-3.2,16.7-3.9,6.2-15.3,5.2-17.9-1.7-1.2-3.2,1.4-25.5,4.2-36.2,5.2-19.5,16.7-31.9,35.7-38.6,6.5-2.3,7.7-2.4,35.6-2.4h28.9l-.7-11.3c-4.5-73.2-37.3-145.3-90.6-198.8-43.9-44-101.1-74.9-160.3-86.4-25.4-5-55.5-7-79.7-5.5ZM-1199-255.33c8.6,2.8,17.6,12.2,21.3,22.5.9,2.5,1.3,52.9,1.7,210.9l.5,207.7,8.5-2.5c25.4-7.3,51.5-22.8,70.6-41.9,6.5-6.5,8.4-8.9,7.8-10.2-.4-.9-2.2-6-4-11.2-5-14.5-5.6-23.2-5.2-78l.3-48.5,2.9-6.2c5.2-11.3,16.5-19.2,28.9-20.1,3.7-.2,6.7-.8,6.7-1.1s-2.6-5.8-5.8-12.1c-12.7-25.4-31.7-47-54.7-62.3l-7-4.7-.5,128.6-.5,128.6-9.4,5.9c-5.2,3.3-9.6,5.8-9.7,5.6-.2-.2-.5-79.6-.6-176.5-.3-168.5-.2-176.2,1.5-176.2,2.9,0,25.4,8.9,36.2,14.3,22.7,11.3,40.4,23.9,59.4,42.2,32,30.8,54.5,68.7,64.6,108.5,2.4,9.6,6.5,31.4,6.5,34.9,0,.9-1.9,2.6-4.3,3.9s-6.5,4.1-9.2,6.3c-5.6,4.6-6.5,4.1-6.5-3.7s-3.8-28.5-7.6-41.5c-13.8-47.5-44.6-89.1-87.8-118.4-8-5.4-30.2-17.5-32.1-17.5-.3,0-.4,7.1-.3,15.7l.3,15.7,8.6,5c13.4,7.9,20.9,13.8,33.5,25.9,30.5,29.2,48.1,62.8,55.1,104.5,1.2,7.5,1.7,20.2,2.2,55.2q.6,45.5,3,50c3.7,7,6.1,9.8,11.5,13.5,16.8,11.4,40.5,6.1,49.8-11.2,4-7.4,8-21.8,11.2-40.6l.7-3.7h9.9c11.6,0,11-.9,8.6,12.5-6.6,37.5-22.3,76.3-43.9,108.5-8.6,12.8-22.9,30-34.7,41.8-40.6,40.5-88.1,66.2-145.7,78.7l-2.2.5,2.5-6.1c1.4-3.4,2.8-8.4,3.1-11l.6-4.9,5.6-1.6c44.8-12.5,79.9-31.6,113.4-61.8,19.3-17.4,40.8-45,53.8-69,4.1-7.6,4.2-7.9,1.8-7.3-5.4,1.6-17.7,1.9-24.6.7-19.1-3.2-36.1-18-42.6-36.9-2.1-6.4-2.2-7.9-2.3-50.1-.1-57.5-1.3-64.4-11.1-67.9-7.7-2.7-16.2,2-18.4,10.2-.7,2.7-.9,19.5-.6,52.6.5,52.3.6,53.9,6.2,68.6,3.8,10.3,8.1,17.1,15.9,25.3,7.1,7.5,17.3,15,25.4,18.6,2.3,1,4.2,2.2,4.2,2.5,0,1.4-16.1,19-26.1,28.6-24,23-53.6,41.3-84.8,52.1l-9.6,3.4-.6-5.3c-.3-2.8-.5-7.6-.5-10.5l.1-5.3,10.4-4c25.6-9.6,51.3-26.1,73-46.7l7.4-7-6.4-5.5c-3.5-3-8.2-7.5-10.3-10.1l-3.8-4.6-10,9.5c-21,20-51.5,36.9-79.3,44l-9,2.3-.5,37.8-.5,37.9-3.1,6.6c-3.7,7.8-8.5,12.9-15.7,16.7-4.7,2.4-6.2,2.7-15.7,2.7s-11-.3-15.5-2.7c-6.8-3.6-12.8-10.1-16.2-17.3l-2.8-6-.3-207.7-.2-207.7-9,2.5c-26.6,7.3-51.4,21.9-71.3,42.1l-7.7,7.9,2.5,6.2c1.4,3.5,3.5,10,4.7,14.5,2.1,7.8,2.2,10.8,2.5,61.1.4,51.1.4,53-1.6,59.6-4,13.1-16,22.5-30.2,23.7-3.8.3-6.9.8-6.9,1.1,0,.2,2,4.7,4.4,9.8,12,25.2,32.2,48.6,56.1,64.9l7,4.8.3-128.6.2-128.5,4.8-3c2.6-1.7,7.1-4.4,10-6.1l5.2-3V249.87l-8.7-3c-36.7-12.8-66.2-31.6-93.3-59.6-29.8-30.5-49.2-64.3-59.4-103.3-3.3-12.5-6.6-29.8-6.6-34.5,0-1.3,1.3-2.7,3.7-4,2.1-1.1,6.3-4.1,9.5-6.7l5.7-4.8.5,5.8c3.3,31.4,8.5,50.9,20.7,76.1,20.3,42.1,52.8,75.8,94.9,98.3,4.7,2.5,9.5,4.9,10.8,5.2l2.2.7v-30.9l-9.8-6c-32.3-19.9-58.9-49.2-73.7-81.4-5-10.9-11.1-31-13.6-44.9-2-11.2-2.3-16.7-2.8-57.9l-.6-45.5-3.3-6.7c-5-10.2-13.1-15.9-25.2-17.9-16.3-2.6-31,6-37.5,21.8-2.5,6.4-6.5,21.5-8.5,32.5l-1.2,6.8h-9.9c-9.6,0-9.9-.1-9.9-2.3,0-3.9,3.1-19.8,6-31.1,17.8-68.5,59.8-127,120-167.1,16.3-10.8,46.1-25.3,64.5-31.4,15.3-5,36.5-10.4,36.5-9.2,0,.3-1.1,3.7-2.5,7.6-1.3,3.8-2.5,8.2-2.5,9.6,0,1.5-.6,3.1-1.2,3.6-.7.6-6.9,2.7-13.8,4.7-55,16.4-102.4,49.3-137,95.1-7.2,9.6-18,26.6-22.5,35.4l-2.7,5.4,2.4-.7c5.3-1.5,17.7-1.8,24.6-.6,19.4,3.2,36.8,18.8,42.5,37.8,1.8,6.2,2,9.9,2.2,49.2.2,43.8.9,53.4,4.5,61.6,4.9,11.3,21.7,8.6,25.1-4,.7-2.7.9-19.9.7-52.5-.5-48.4-.5-48.6-3-58.2-6.5-24.1-20.3-41.5-42-52.9l-6.8-3.6,2.8-4c1.6-2.1,6-7.3,9.8-11.4,21.7-23.7,46.4-42,74.4-55.4,11-5.2,30.6-12.6,33.6-12.6,1.1,0,1.4,2.1,1.4,10.4v10.4l-4.2,1.6c-2.4.9-7.4,2.7-11.3,4.1-21.4,7.9-49.1,25.9-68.8,44.9l-6.9,6.6,6.9,5.9c3.7,3.2,8.3,7.7,10.1,10l3.4,4.2,8.1-7.8c13.8-13.2,27.8-22.9,45.8-31.9,8.8-4.4,30-12.1,39.6-14.3l5.2-1.3.3-37.6c.3-36.5.4-37.9,2.6-43.4,3.8-9.6,12.8-18,22.2-20.9,4.6-1.4,16.6-1,22,.8ZM-1144-248.53c28.4,6.9,63.2,22.1,87,38,55.3,37,94.1,87.4,114.5,148.8,5,15,11.5,42.5,11.5,48.9v2.8h-19.5l-2.8-14.1c-7.7-39.2-26.7-80.2-51.5-111.4-34.7-43.6-84.3-76.8-136.6-91.4-8.6-2.4-10.2-3.2-10.8-5.2-.4-1.3-1.7-5.8-3-9.9-1.2-4.1-2.4-8-2.6-8.7s.4-1,1.5-.7c1,.2,6.5,1.5,12.3,2.9ZM-1470,69.17c7.1,42.5,27.2,86.4,55.7,121.8,9.3,11.6,26.7,28.8,39.9,39.4,26.6,21.4,59.6,38.4,93.4,48.1l11.5,3.3,1.2,5.9c.6,3.3,2,8.2,3.1,11.1l2,5.2-2.6-.6c-45.7-10.4-82.9-27.6-118.2-54.7-13.6-10.4-40.3-37.2-50.9-50.9-27.2-35.5-46.2-78.2-54.5-122.7-2.7-14-3.3-13.1,8.3-13.1h9.9l1.2,7.2Z"/>
    <path d="M-1217.8-235.03c-1.8,1.1-4.1,3.4-5.2,5.2-2,3.3-2,5.6-2,256.2s0,252.9,2,256.1c5.2,8.4,19,8.4,24.1.1,1.8-3,1.9-10.3,1.9-256.8v-253.6l-2.6-3.2c-5.2-6.1-12.2-7.7-18.2-4Z"/>
  </g>
  <g>
    <path class="st0" d="M41.73,87.76l-.17-.85-1.66-.48c-4.88-1.4-9.64-3.85-13.47-6.94-1.9-1.53-4.41-4.01-5.76-5.68-4.11-5.11-7.01-11.44-8.04-17.57l-.17-1.04h-1.43c-1.67,0-1.59-.13-1.2,1.89,1.2,6.42,3.94,12.58,7.86,17.7,1.53,1.98,5.38,5.84,7.34,7.34,5.09,3.91,10.46,6.39,17.05,7.89l.38.09-.29-.75c-.16-.42-.36-1.13-.45-1.6Z"/>
    <path class="st0" d="M81.52,48.14c.39-.32.98-.72,1.33-.91.35-.19.62-.43.62-.56,0-.5-.59-3.65-.94-5.04-1.46-5.74-4.7-11.21-9.32-15.65-2.74-2.64-5.29-4.46-8.57-6.09-1.56-.78-4.8-2.06-5.22-2.06-.25,0-.26,1.11-.22,25.42.01,13.98.06,25.43.09,25.46.01.03.65-.33,1.4-.81l1.36-.85.07-18.55.07-18.55,1.01.68c3.32,2.21,6.06,5.32,7.89,8.99.46.91.84,1.7.84,1.75s-.43.13-.97.16c-1.79.13-3.42,1.27-4.17,2.9l-.42.89-.04,7c-.06,7.91.03,9.16.75,11.25.26.75.52,1.49.58,1.62.09.19-.19.53-1.13,1.47-2.76,2.76-6.52,4.99-10.19,6.04l-1.23.36-.07-29.96c-.06-22.79-.12-30.07-.25-30.43-.53-1.49-1.83-2.84-3.07-3.25-.78-.26-2.51-.32-3.17-.12-1.36.42-2.65,1.63-3.2,3.02-.32.79-.33,1-.38,6.26l-.04,5.42-.75.19c-1.38.32-4.44,1.43-5.71,2.06-2.6,1.3-4.62,2.7-6.61,4.6l-1.17,1.13-.49-.61c-.26-.33-.92-.98-1.46-1.44l-1-.85,1-.95c2.84-2.74,6.84-5.34,9.93-6.48.56-.2,1.28-.46,1.63-.59l.61-.23v-1.5c0-1.2-.04-1.5-.2-1.5-.43,0-3.26,1.07-4.85,1.82-4.04,1.93-7.6,4.57-10.73,7.99-.55.59-1.18,1.34-1.41,1.64l-.4.58.98.52c3.13,1.64,5.12,4.15,6.06,7.63.36,1.38.36,1.41.43,8.4.03,4.7,0,7.18-.1,7.57-.49,1.82-2.91,2.21-3.62.58-.52-1.18-.62-2.57-.65-8.89-.03-5.67-.06-6.2-.32-7.1-.82-2.74-3.33-4.99-6.13-5.45-1-.17-2.78-.13-3.55.09l-.35.1.39-.78c.65-1.27,2.21-3.72,3.25-5.11,4.99-6.61,11.83-11.35,19.77-13.72,1-.29,1.89-.59,1.99-.68.09-.07.17-.3.17-.52,0-.2.17-.84.36-1.39.2-.56.36-1.05.36-1.1,0-.17-3.06.61-5.27,1.33-2.65.88-6.95,2.97-9.31,4.53-8.69,5.79-14.74,14.23-17.31,24.11-.42,1.63-.87,3.92-.87,4.49,0,.32.04.33,1.43.33h1.43l.17-.98c.29-1.59.87-3.77,1.23-4.69.94-2.28,3.06-3.52,5.41-3.15,1.75.29,2.91,1.11,3.64,2.58l.48.97.09,6.56c.07,5.94.12,6.74.4,8.35.36,2.01,1.24,4.91,1.96,6.48,2.14,4.65,5.97,8.87,10.63,11.74l1.41.87v4.46l-.32-.1c-.19-.04-.88-.39-1.56-.75-6.07-3.25-10.76-8.11-13.69-14.18-1.76-3.64-2.51-6.45-2.99-10.98l-.07-.84-.82.69c-.46.38-1.07.81-1.37.97-.35.19-.53.39-.53.58,0,.68.48,3.17.95,4.98,1.47,5.63,4.27,10.5,8.57,14.9,3.91,4.04,8.17,6.75,13.46,8.6l1.26.43V31.26l-.75.43c-.42.25-1.07.63-1.44.88l-.69.43-.03,18.54-.04,18.55-1.01-.69c-3.45-2.35-6.36-5.73-8.09-9.36-.35-.74-.63-1.38-.63-1.41,0-.04.45-.12,1-.16,2.05-.17,3.78-1.53,4.36-3.42.29-.95.29-1.23.23-8.6-.04-7.26-.06-7.69-.36-8.81-.17-.65-.48-1.59-.68-2.09l-.36-.89,1.11-1.14c2.87-2.91,6.45-5.02,10.29-6.07l1.3-.36.03,29.96.04,29.96.4.87c.49,1.04,1.36,1.98,2.34,2.5.65.35.87.39,2.24.39s1.59-.04,2.27-.39c1.04-.55,1.73-1.28,2.27-2.41l.45-.95.07-5.47.07-5.45,1.3-.33c4.01-1.02,8.41-3.46,11.44-6.35l1.44-1.37.55.66c.3.38.98,1.02,1.49,1.46l.92.79-1.07,1.01c-3.13,2.97-6.84,5.35-10.53,6.74l-1.5.58v.76c-.01.42.01,1.11.06,1.51l.09.76,1.39-.49c4.5-1.56,8.77-4.2,12.23-7.52,1.44-1.38,3.77-3.92,3.77-4.13,0-.04-.27-.22-.61-.36-1.17-.52-2.64-1.6-3.66-2.68-1.13-1.18-1.75-2.16-2.29-3.65-.81-2.12-.82-2.35-.89-9.9-.04-4.78-.01-7.2.09-7.59.32-1.18,1.54-1.86,2.65-1.47,1.41.5,1.59,1.5,1.6,9.8.01,6.09.03,6.3.33,7.23.94,2.73,3.39,4.86,6.15,5.32,1,.17,2.77.13,3.55-.1.35-.09.33-.04-.26,1.05-1.88,3.46-4.98,7.44-7.76,9.95-4.83,4.36-9.9,7.11-16.36,8.92l-.81.23-.09.71c-.04.38-.25,1.1-.45,1.59l-.36.88.32-.07c8.31-1.8,15.16-5.51,21.02-11.35,1.7-1.7,3.77-4.18,5.01-6.03,3.12-4.65,5.38-10.24,6.33-15.65.35-1.93.43-1.8-1.24-1.8h-1.43l-.1.53c-.46,2.71-1.04,4.79-1.62,5.86-1.34,2.5-4.76,3.26-7.18,1.62-.78-.53-1.13-.94-1.66-1.95q-.35-.65-.43-7.21c-.07-5.05-.14-6.88-.32-7.96-1.01-6.02-3.55-10.86-7.95-15.08-1.82-1.75-2.9-2.6-4.83-3.74l-1.24-.72-.04-2.27c-.01-1.24,0-2.27.04-2.27.27,0,3.48,1.75,4.63,2.52,6.23,4.23,10.68,10.23,12.67,17.08.55,1.88,1.1,4.86,1.1,5.99s.13,1.2.94.53ZM52.02,49.97c0,35.56-.01,36.62-.27,37.05-.74,1.2-2.73,1.2-3.48-.01-.29-.46-.29-.62-.29-36.95s0-36.49.29-36.96c.16-.26.49-.59.75-.75.87-.53,1.88-.3,2.63.58l.38.46v36.59Z"/>
    <path class="st0" d="M58.05,11.34c.19.59.38,1.24.43,1.43.09.29.32.4,1.56.75,7.55,2.11,14.7,6.9,19.71,13.19,3.58,4.5,6.32,10.42,7.43,16.07l.4,2.03h2.81v-.4c0-.92-.94-4.89-1.66-7.05-2.94-8.86-8.54-16.13-16.52-21.47-3.43-2.29-8.45-4.49-12.55-5.48-.84-.2-1.63-.39-1.77-.42-.16-.04-.25,0-.22.1.03.1.2.66.38,1.26Z"/>
    <path class="st0" d="M96.93,40.14c-1.5-7.27-4.75-14.1-9.55-20.14-1.4-1.76-5.61-5.97-7.37-7.37-7.18-5.71-14.96-9.06-23.86-10.24-2.06-.27-7.62-.48-8.89-.33-.27.03-1.21.13-2.09.2-10.59,1.01-20.57,5.7-28.54,13.4-8.15,7.89-13.24,18.37-14.37,29.52-.95,9.35.81,18.44,5.16,26.83,6.04,11.67,16.84,20.49,29.52,24.15,12.44,3.58,25.87,1.9,36.95-4.62,10.5-6.17,18.15-15.64,21.83-27.01,2.54-7.86,2.96-16.07,1.21-24.4ZM79.99,59.7c.38,1,2.02,1.14,2.58.25.1-.16.32-1.24.46-2.41.16-1.17.35-2.35.43-2.63.26-.92,1.05-2.05,1.77-2.55,1.23-.84,1.75-.91,5.97-.91h3.79v.68c0,1.05-.4,4.4-.72,6.17-.61,3.19-1.72,6.8-2.96,9.62-4.53,10.23-12.65,18.45-22.81,23.1-3.71,1.7-7.92,2.94-12.03,3.58-2.81.43-7.98.53-10.96.22-5.55-.59-10.17-1.93-15.22-4.41-4.93-2.44-8.04-4.66-11.99-8.58-3.64-3.62-5.96-6.72-8.18-10.89-2.91-5.5-4.72-11.8-5.09-17.86l-.1-1.62h4.11c3.35,0,4.24-.04,4.89-.23,2.63-.78,4.4-2.52,5.35-5.25.26-.75.84-4.36.84-5.24,0-.26-.14-.56-.42-.84-.59-.58-1.46-.59-2.02-.01-.35.35-.43.59-.58,1.69-.5,3.78-.76,4.57-1.79,5.6-.3.3-.92.74-1.38.95-.81.38-.82.38-4.88.42l-4.08.04v-.76c0-1.3.42-4.54.87-6.75.79-3.95,1.88-7.07,3.75-10.89,4.96-10.06,13.45-17.89,23.92-22.09,4.23-1.7,9.07-2.78,13.73-3.09,3.49-.22,7.83.07,11.5.79,8.54,1.66,16.79,6.12,23.13,12.46,7.69,7.72,12.42,18.12,13.07,28.68l.1,1.63h-4.17c-4.03,0-4.2.01-5.14.35-2.74.97-4.4,2.76-5.15,5.57-.4,1.54-.78,4.76-.61,5.22Z"/>
  </g>
</svg>