<?xml version="1.0" standalone="no"?>
<!DOCTYPE svg PUBLIC "-//W3C//DTD SVG 20010904//EN"
 "http://www.w3.org/TR/2001/REC-SVG-20010904/DTD/svg10.dtd">
<svg version="1.0" xmlns="http://www.w3.org/2000/svg"
 width="1024.000000pt" height="1024.000000pt" viewBox="0 0 1024.000000 1024.000000"
 preserveAspectRatio="xMidYMid meet">
<metadata>
Created by potrace 1.16, written by Peter Selinger 2001-2019
</metadata>
<g transform="translate(0.000000,1024.000000) scale(0.100000,-0.100000)"
fill="#000000" stroke="none">
<path d="M0 5120 l0 -5120 5120 0 5120 0 0 5120 0 5120 -5120 0 -5120 0 0
-5120z m5546 3301 c617 -82 1156 -314 1654 -710 122 -97 414 -389 511 -511
333 -419 558 -892 662 -1396 121 -577 92 -1146 -84 -1691 -255 -788 -785
-1444 -1513 -1872 -768 -452 -1699 -568 -2561 -320 -879 254 -1627 865 -2046
1674 -302 582 -424 1212 -358 1860 78 773 431 1499 996 2046 552 534 1244 859
1978 929 61 5 126 12 145 14 88 10 473 -4 616 -23z"/>
<path d="M4930 8240 c-323 -21 -659 -96 -952 -214 -726 -291 -1314 -834 -1658
-1531 -130 -265 -205 -481 -260 -755 -31 -153 -60 -378 -60 -468 l0 -53 283 3
c281 3 282 3 338 29 32 15 75 45 96 66 71 71 89 126 124 388 10 76 16 93 40
117 39 40 99 39 140 -1 19 -19 29 -40 29 -58 0 -61 -40 -311 -58 -363 -66
-189 -189 -310 -371 -364 -45 -13 -107 -16 -339 -16 l-285 0 7 -112 c26 -420
151 -857 353 -1238 154 -289 315 -504 567 -755 274 -272 489 -426 831 -595
350 -172 670 -265 1055 -306 207 -22 565 -15 760 15 285 44 577 130 834 248
704 322 1267 892 1581 1601 86 196 163 446 205 667 22 123 50 355 50 428 l0
47 -263 0 c-293 0 -329 -5 -414 -63 -50 -35 -105 -113 -123 -177 -6 -19 -19
-101 -30 -182 -10 -81 -25 -156 -32 -167 -39 -62 -153 -52 -179 17 -12 32 14
255 42 362 52 195 167 319 357 386 65 23 77 24 356 24 l289 0 -7 113 c-45 732
-373 1453 -906 1988 -439 440 -1011 749 -1603 864 -254 50 -555 70 -797 55z
m310 -307 c86 -28 176 -122 213 -225 9 -25 13 -529 17 -2109 l5 -2077 85 25
c254 73 515 228 706 419 65 65 84 89 78 102 -4 9 -22 60 -40 112 -50 145 -56
232 -52 780 l3 485 29 62 c52 113 165 192 289 201 37 2 67 8 67 11 0 3 -26 58
-58 121 -127 254 -317 470 -547 623 l-70 47 -5 -1286 -5 -1286 -94 -59 c-52
-33 -96 -58 -97 -56 -2 2 -5 796 -6 1765 -3 1685 -2 1762 15 1762 29 0 254
-89 362 -143 227 -113 404 -239 594 -422 320 -308 545 -687 646 -1085 24 -96
65 -314 65 -349 0 -9 -19 -26 -43 -39 -24 -13 -65 -41 -92 -63 -56 -46 -65
-41 -65 37 0 78 -38 285 -76 415 -138 475 -446 891 -878 1184 -80 54 -302 175
-321 175 -3 0 -4 -71 -3 -157 l3 -157 86 -50 c134 -79 209 -138 335 -259 305
-292 481 -628 551 -1045 12 -75 17 -202 22 -552 6 -455 6 -455 30 -500 37 -70
61 -98 115 -135 168 -114 405 -61 498 112 40 74 80 218 112 406 l7 37 99 0
c116 0 110 9 86 -125 -66 -375 -223 -763 -439 -1085 -86 -128 -229 -300 -347
-418 -406 -405 -881 -662 -1457 -787 l-22 -5 25 61 c14 34 28 84 31 110 l6 49
56 16 c448 125 799 316 1134 618 193 174 408 450 538 690 41 76 42 79 18 73
-54 -16 -177 -19 -246 -7 -191 32 -361 180 -426 369 -21 64 -22 79 -23 501 -1
575 -13 644 -111 679 -77 27 -162 -20 -184 -102 -7 -27 -9 -195 -6 -526 5
-523 6 -539 62 -686 38 -103 81 -171 159 -253 71 -75 173 -150 254 -186 23
-10 42 -22 42 -25 0 -14 -161 -190 -261 -286 -240 -230 -536 -413 -848 -521
l-96 -34 -6 53 c-3 28 -5 76 -5 105 l1 53 104 40 c256 96 513 261 730 467 l74
70 -64 55 c-35 30 -82 75 -103 101 l-38 46 -100 -95 c-210 -200 -515 -369
-793 -440 l-90 -23 -5 -378 -5 -379 -31 -66 c-37 -78 -85 -129 -157 -167 -47
-24 -62 -27 -157 -27 -95 0 -110 3 -155 27 -68 36 -128 101 -162 173 l-28 60
-3 2077 -2 2077 -90 -25 c-266 -73 -514 -219 -713 -421 l-77 -79 25 -62 c14
-35 35 -100 47 -145 21 -78 22 -108 25 -611 4 -511 4 -530 -16 -596 -40 -131
-160 -225 -302 -237 -38 -3 -69 -8 -69 -11 0 -2 20 -47 44 -98 120 -252 322
-486 561 -649 l70 -48 3 1286 2 1285 48 30 c26 17 71 44 100 61 l52 30 0
-1769 0 -1769 -87 30 c-367 128 -662 316 -933 596 -298 305 -492 643 -594
1033 -33 125 -66 298 -66 345 0 13 13 27 37 40 21 11 63 41 95 67 l57 48 5
-58 c33 -314 85 -509 207 -761 203 -421 528 -758 949 -983 47 -25 95 -49 108
-52 l22 -7 0 154 0 155 -98 60 c-323 199 -589 492 -737 814 -50 109 -111 310
-136 449 -20 112 -23 167 -28 579 l-6 455 -33 67 c-50 102 -131 159 -252 179
-163 26 -310 -60 -375 -218 -25 -64 -65 -215 -85 -325 l-12 -68 -99 0 c-96 0
-99 1 -99 23 0 39 31 198 60 311 178 685 598 1270 1200 1671 163 108 461 253
645 314 153 50 365 104 365 92 0 -3 -11 -37 -25 -76 -13 -38 -25 -82 -25 -96
0 -15 -6 -31 -12 -36 -7 -6 -69 -27 -138 -47 -550 -164 -1024 -493 -1370 -951
-72 -96 -180 -266 -225 -354 l-27 -54 24 7 c53 15 177 18 246 6 194 -32 368
-188 425 -378 18 -62 20 -99 22 -492 2 -438 9 -534 45 -616 49 -113 217 -86
251 40 7 27 9 199 7 525 -5 484 -5 486 -30 582 -65 241 -203 415 -420 529
l-68 36 28 40 c16 21 60 73 98 114 217 237 464 420 744 554 110 52 306 126
336 126 11 0 14 -21 14 -104 l0 -104 -42 -16 c-24 -9 -74 -27 -113 -41 -214
-79 -491 -259 -688 -449 l-69 -66 69 -59 c37 -32 83 -77 101 -100 l34 -42 81
78 c138 132 278 229 458 319 88 44 300 121 396 143 l52 13 3 376 c3 365 4 379
26 434 38 96 128 180 222 209 46 14 166 10 220 -8z m550 -68 c284 -69 632
-221 870 -380 553 -370 941 -874 1145 -1488 50 -150 115 -425 115 -489 l0 -28
-97 0 -98 0 -28 141 c-77 392 -267 802 -515 1114 -347 436 -843 768 -1366 914
-86 24 -102 32 -108 52 -4 13 -17 58 -30 99 -12 41 -24 80 -26 87 -2 7 4 10
15 7 10 -2 65 -15 123 -29z m-3260 -3177 c71 -425 272 -864 557 -1218 93 -116
267 -288 399 -394 266 -214 596 -384 934 -481 l115 -33 12 -59 c6 -33 20 -82
31 -111 l20 -52 -26 6 c-457 104 -829 276 -1182 547 -136 104 -403 372 -509
509 -272 355 -462 782 -545 1227 -27 140 -33 131 83 131 l99 0 12 -72z"/>
<path d="M5052 7730 c-18 -11 -41 -34 -52 -52 -20 -33 -20 -56 -20 -2562 0
-2518 0 -2529 20 -2561 52 -84 190 -84 241 -1 18 30 19 103 19 2568 l0 2536
-26 32 c-52 61 -122 77 -182 40z"/>
</g>
</svg>
